STARTFONT 2.3
FONT -FontForge-Syncopate-Book-R-Normal--10-100-72-72-P-75-ISO10646-1
SIZE 10 72 72  4
FONTBOUNDINGBOX 19 13 -2 -3
COMMENT "Generated by fontforge, http://fontforge.sourceforge.net"
COMMENT "Copyright (c) 2010 by Brian J. Bonislawsky DBA Astigmatic (AOETI). All rights reserved. Available under the Apache 2.0 licence.http://www.apache.org/licenses/LICENSE-2.0.html"
STARTPROPERTIES 40
FOUNDRY "FontForge"
FAMILY_NAME "Syncopate"
WEIGHT_NAME "Book"
SLANT "R"
SETWIDTH_NAME "Normal"
ADD_STYLE_NAME ""
PIXEL_SIZE 10
POINT_SIZE 100
RESOLUTION_X 72
RESOLUTION_Y 72
SPACING "P"
AVERAGE_WIDTH 75
CHARSET_REGISTRY "ISO10646"
CHARSET_ENCODING "1"
FONTNAME_REGISTRY ""
CHARSET_COLLECTIONS "ISO8859-2 ISO8859-9 ISO8859-4 ISO10646-1"
BITS_PER_PIXEL 4
FONT_NAME "Syncopate-Regular"
FACE_NAME "Syncopate Regular"
COPYRIGHT "Copyright (c) 2010 by Brian J. Bonislawsky DBA Astigmatic (AOETI). All rights reserved. Available under the Apache 2.0 licence.http://www.apache.org/licenses/LICENSE-2.0.html"
FONT_VERSION "001.001"
FONT_ASCENT 8
FONT_DESCENT 2
UNDERLINE_POSITION -1
UNDERLINE_THICKNESS 1
X_HEIGHT 6
CAP_HEIGHT 6
RAW_ASCENT 799
RAW_DESCENT 200
NORM_SPACE 4
RELATIVE_WEIGHT 40
RELATIVE_SETWIDTH 70
SUPERSCRIPT_X 0
SUPERSCRIPT_Y 2
SUPERSCRIPT_SIZE 2
SUBSCRIPT_X 0
SUBSCRIPT_Y 2
SUBSCRIPT_SIZE 2
AVG_LOWERCASE_WIDTH 85
AVG_UPPERCASE_WIDTH 82
ENDPROPERTIES
CHARS 370
STARTCHAR space
ENCODING 32
SWIDTH 375 0
DWIDTH 4 0
BBX 1 1 0 0
BITMAP
00
ENDCHAR
STARTCHAR exclam
ENCODING 33
SWIDTH 274 0
DWIDTH 3 0
BBX 1 7 1 0
BITMAP
B0
B0
90
80
70
00
B0
ENDCHAR
STARTCHAR quotedbl
ENCODING 34
SWIDTH 290 0
DWIDTH 3 0
BBX 3 2 0 5
BITMAP
9280
8170
ENDCHAR
STARTCHAR numbersign
ENCODING 35
SWIDTH 701 0
DWIDTH 7 0
BBX 7 7 0 0
BITMAP
00620800
00701600
0EFFFF80
00706200
02607000
8FFFFE00
07116000
ENDCHAR
STARTCHAR dollar
ENCODING 36
SWIDTH 767 0
DWIDTH 8 0
BBX 7 9 0 -1
BITMAP
00071000
06DFFF50
2A271000
1B581000
029EC700
00073690
000713A0
2FFFEB30
00071000
ENDCHAR
STARTCHAR percent
ENCODING 37
SWIDTH 992 0
DWIDTH 10 0
BBX 9 7 0 0
BITMAP
2CEA004600
7518428000
2CFA191000
0000820000
000554DE70
00280A21B0
019005DE70
ENDCHAR
STARTCHAR ampersand
ENCODING 38
SWIDTH 926 0
DWIDTH 9 0
BBX 9 7 0 0
BITMAP
009EE90000
02911A0000
0094620000
038A100000
1801930810
2B30068700
06CFEB6920
ENDCHAR
STARTCHAR quotesingle
ENCODING 39
SWIDTH 140 0
DWIDTH 1 0
BBX 1 2 0 5
BITMAP
90
80
ENDCHAR
STARTCHAR parenleft
ENCODING 40
SWIDTH 420 0
DWIDTH 4 0
BBX 4 8 0 -1
BITMAP
0091
0730
0A00
2700
2700
0A00
0730
0091
ENDCHAR
STARTCHAR parenright
ENCODING 41
SWIDTH 420 0
DWIDTH 4 0
BBX 3 8 1 -1
BITMAP
9100
1900
0820
0450
0450
0820
1900
9100
ENDCHAR
STARTCHAR asterisk
ENCODING 42
SWIDTH 503 0
DWIDTH 5 0
BBX 5 4 0 3
BITMAP
118010
28A820
18A820
118010
ENDCHAR
STARTCHAR plus
ENCODING 43
SWIDTH 634 0
DWIDTH 6 0
BBX 6 5 0 1
BITMAP
001700
001700
2FFFF8
001700
001700
ENDCHAR
STARTCHAR comma
ENCODING 44
SWIDTH 185 0
DWIDTH 2 0
BBX 2 2 0 -1
BITMAP
74
90
ENDCHAR
STARTCHAR hyphen
ENCODING 45
SWIDTH 540 0
DWIDTH 5 0
BBX 5 1 0 3
BITMAP
3FFF90
ENDCHAR
STARTCHAR period
ENCODING 46
SWIDTH 185 0
DWIDTH 2 0
BBX 2 1 0 0
BITMAP
85
ENDCHAR
STARTCHAR slash
ENCODING 47
SWIDTH 500 0
DWIDTH 5 0
BBX 5 7 0 0
BITMAP
000630
000900
005400
009000
045000
090000
360000
ENDCHAR
STARTCHAR zero
ENCODING 48
SWIDTH 833 0
DWIDTH 8 0
BBX 8 7 0 0
BITMAP
019EEB30
0B7114C2
37000028
54000009
37000028
0B7104C2
019EEB30
ENDCHAR
STARTCHAR one
ENCODING 49
SWIDTH 339 0
DWIDTH 3 0
BBX 3 7 0 0
BITMAP
FF30
0630
0630
0630
0630
0630
0630
ENDCHAR
STARTCHAR two
ENCODING 50
SWIDTH 728 0
DWIDTH 7 0
BBX 7 7 0 0
BITMAP
8FFEC600
00003A50
00000270
00001810
00048100
04630000
8FFFFFA0
ENDCHAR
STARTCHAR three
ENCODING 51
SWIDTH 726 0
DWIDTH 7 0
BBX 7 7 0 0
BITMAP
7FFFD700
00002A30
00013920
00AFD400
00012750
00002770
9FFFD800
ENDCHAR
STARTCHAR four
ENCODING 52
SWIDTH 769 0
DWIDTH 8 0
BBX 8 7 0 0
BITMAP
0001AA00
002A1900
03910900
38000900
BFFFFFF6
00000900
00000900
ENDCHAR
STARTCHAR five
ENCODING 53
SWIDTH 738 0
DWIDTH 7 0
BBX 7 7 0 0
BITMAP
2FFFFF30
27000000
27000000
2EEFD910
00001590
00001590
6FFFD910
ENDCHAR
STARTCHAR six
ENCODING 54
SWIDTH 772 0
DWIDTH 8 0
BBX 8 7 0 0
BITMAP
018DFF90
0A720000
29000000
58AEFC60
4B4102A3
094102A2
02AEEC50
ENDCHAR
STARTCHAR seven
ENCODING 55
SWIDTH 669 0
DWIDTH 7 0
BBX 7 7 0 0
BITMAP
FFFFFF50
00000900
00006300
00028000
00091000
00650000
01900000
ENDCHAR
STARTCHAR eight
ENCODING 56
SWIDTH 793 0
DWIDTH 8 0
BBX 8 7 0 0
BITMAP
03BEEB30
0B3113B0
09512670
01BFFA10
294114A2
58200294
08DEEC70
ENDCHAR
STARTCHAR nine
ENCODING 57
SWIDTH 776 0
DWIDTH 8 0
BBX 8 7 0 0
BITMAP
07DFD810
67201580
671015C1
08DFD9A1
000000B0
00002970
0EFFD700
ENDCHAR
STARTCHAR colon
ENCODING 58
SWIDTH 245 0
DWIDTH 2 0
BBX 2 5 0 0
BITMAP
3A
00
00
00
3A
ENDCHAR
STARTCHAR semicolon
ENCODING 59
SWIDTH 234 0
DWIDTH 2 0
BBX 2 6 0 -1
BITMAP
3A
00
00
00
47
73
ENDCHAR
STARTCHAR less
ENCODING 60
SWIDTH 634 0
DWIDTH 6 0
BBX 6 5 0 1
BITMAP
000297
05BB61
4D4000
05BB61
000297
ENDCHAR
STARTCHAR equal
ENCODING 61
SWIDTH 634 0
DWIDTH 6 0
BBX 6 3 0 2
BITMAP
2FFFF8
000000
2FFFF8
ENDCHAR
STARTCHAR greater
ENCODING 62
SWIDTH 634 0
DWIDTH 6 0
BBX 6 5 0 1
BITMAP
2B4000
049C71
0001B9
049C71
2B5000
ENDCHAR
STARTCHAR question
ENCODING 63
SWIDTH 568 0
DWIDTH 6 0
BBX 5 7 0 0
BITMAP
6FFC40
0003C0
000090
027820
073000
000000
074000
ENDCHAR
STARTCHAR at
ENCODING 64
SWIDTH 1016 0
DWIDTH 10 0
BBX 10 7 0 0
BITMAP
003ADFD910
05C51025B1
0B05DED055
370B229194
2A09FDCE80
0993100000
006CEED600
ENDCHAR
STARTCHAR A
ENCODING 65
SWIDTH 812 0
DWIDTH 8 0
BBX 8 7 0 0
BITMAP
0008A000
001B9300
00842A00
01B00A30
085003A0
1EFFFFF3
8500004A
ENDCHAR
STARTCHAR B
ENCODING 66
SWIDTH 836 0
DWIDTH 8 0
BBX 7 7 1 0
BITMAP
DFFFEA00
90001840
90001830
DFFFFA10
90001490
900003A0
DFFFFC30
ENDCHAR
STARTCHAR C
ENCODING 67
SWIDTH 869 0
DWIDTH 9 0
BBX 8 7 0 0
BITMAP
007CEFFF
0A930000
39000000
55000000
39000000
0A830000
007CFFFF
ENDCHAR
STARTCHAR D
ENCODING 68
SWIDTH 910 0
DWIDTH 9 0
BBX 8 7 1 0
BITMAP
DFFFDA20
900015C1
90000065
90000036
90000065
900015D1
DFFFEA20
ENDCHAR
STARTCHAR E
ENCODING 69
SWIDTH 754 0
DWIDTH 8 0
BBX 6 7 1 0
BITMAP
DFFFFB
A00000
A00000
DFFFF7
A00000
A00000
DFFFFC
ENDCHAR
STARTCHAR F
ENCODING 70
SWIDTH 687 0
DWIDTH 7 0
BBX 6 7 1 0
BITMAP
DFFFF7
900000
900000
DFFFF3
900000
900000
900000
ENDCHAR
STARTCHAR G
ENCODING 71
SWIDTH 910 0
DWIDTH 9 0
BBX 9 7 0 0
BITMAP
007CEFFF20
0A93100000
3900000000
5500000000
39001FFF40
0993101640
006CEFEB20
ENDCHAR
STARTCHAR H
ENCODING 72
SWIDTH 949 0
DWIDTH 10 0
BBX 8 7 1 0
BITMAP
90000045
90000045
90000045
DFFFFFF5
90000045
90000045
90000045
ENDCHAR
STARTCHAR I
ENCODING 73
SWIDTH 287 0
DWIDTH 3 0
BBX 1 7 1 0
BITMAP
90
90
90
90
90
90
90
ENDCHAR
STARTCHAR J
ENCODING 74
SWIDTH 590 0
DWIDTH 6 0
BBX 5 7 0 0
BITMAP
000090
000090
000090
000090
0000A0
000690
FFEB10
ENDCHAR
STARTCHAR K
ENCODING 75
SWIDTH 806 0
DWIDTH 8 0
BBX 7 7 1 0
BITMAP
90003820
90076000
93920000
BC200000
91950000
90059100
90002A40
ENDCHAR
STARTCHAR L
ENCODING 76
SWIDTH 701 0
DWIDTH 7 0
BBX 6 7 1 0
BITMAP
900000
900000
900000
900000
900000
900000
DFFFFA
ENDCHAR
STARTCHAR M
ENCODING 77
SWIDTH 1139 0
DWIDTH 11 0
BBX 10 7 1 0
BITMAP
D2000000B4
BB000005D4
9860001C64
90C200A454
903B059054
90087C1054
9001D40054
ENDCHAR
STARTCHAR N
ENCODING 78
SWIDTH 936 0
DWIDTH 9 0
BBX 8 7 1 0
BITMAP
D4000064
99400064
90930064
90092064
9001A264
90001A74
900001C4
ENDCHAR
STARTCHAR O
ENCODING 79
SWIDTH 983 0
DWIDTH 10 0
BBX 10 7 0 0
BITMAP
007CEEC600
0B83113A70
39000000B1
5500000082
39000000B1
0A82113A80
007CEEC600
ENDCHAR
STARTCHAR P
ENCODING 80
SWIDTH 818 0
DWIDTH 8 0
BBX 7 7 1 0
BITMAP
DFFFEA10
90001580
90000480
DFFFEA10
90000000
90000000
90000000
ENDCHAR
STARTCHAR Q
ENCODING 81
SWIDTH 983 0
DWIDTH 10 0
BBX 10 7 0 0
BITMAP
007CEEC600
0B83113A70
39000000B1
5500000072
39000000A1
0A8216BA80
007CEEC8A9
ENDCHAR
STARTCHAR R
ENCODING 82
SWIDTH 833 0
DWIDTH 8 0
BBX 7 7 1 0
BITMAP
DFFFD800
90001940
90001940
DFFFE800
90008200
90001A00
90000390
ENDCHAR
STARTCHAR S
ENCODING 83
SWIDTH 787 0
DWIDTH 8 0
BBX 7 7 0 0
BITMAP
06DFFF80
2A200000
0A730000
0059B920
000002A0
000003C0
2FFFEC40
ENDCHAR
STARTCHAR T
ENCODING 84
SWIDTH 708 0
DWIDTH 7 0
BBX 7 7 0 0
BITMAP
CFFFFFE0
00090000
00090000
00090000
00090000
00090000
00090000
ENDCHAR
STARTCHAR U
ENCODING 85
SWIDTH 891 0
DWIDTH 9 0
BBX 7 7 1 0
BITMAP
90000090
90000090
90000090
90000090
A00000A0
B7202890
1AEFD910
ENDCHAR
STARTCHAR V
ENCODING 86
SWIDTH 817 0
DWIDTH 8 0
BBX 8 7 0 0
BITMAP
73000019
1A000083
083001A0
01A00830
00931A00
002B8400
0009B000
ENDCHAR
STARTCHAR W
ENCODING 87
SWIDTH 1266 0
DWIDTH 13 0
BBX 13 7 0 0
BITMAP
740004D0000920
19000964000A00
09101919005500
0460540910A000
00A09004628000
00748000973000
002D30007A0000
ENDCHAR
STARTCHAR X
ENCODING 88
SWIDTH 821 0
DWIDTH 8 0
BBX 8 7 0 0
BITMAP
1A100083
02900740
00386500
0008B000
00474700
03800560
29000065
ENDCHAR
STARTCHAR Y
ENCODING 89
SWIDTH 763 0
DWIDTH 8 0
BBX 8 7 0 0
BITMAP
470001A1
07500A20
00A38500
001C8000
00072000
00072000
00072000
ENDCHAR
STARTCHAR Z
ENCODING 90
SWIDTH 728 0
DWIDTH 7 0
BBX 7 7 0 0
BITMAP
2FFFFF70
00001700
00007000
00071000
00610000
05200000
3FFFFF90
ENDCHAR
STARTCHAR bracketleft
ENCODING 91
SWIDTH 409 0
DWIDTH 4 0
BBX 3 8 1 -1
BITMAP
BF90
9000
9000
9000
9000
9000
9000
BF90
ENDCHAR
STARTCHAR backslash
ENCODING 92
SWIDTH 500 0
DWIDTH 5 0
BBX 5 7 0 0
BITMAP
360000
090000
045000
009000
005400
000900
000630
ENDCHAR
STARTCHAR bracketright
ENCODING 93
SWIDTH 409 0
DWIDTH 4 0
BBX 3 8 0 -1
BITMAP
8FC0
0090
0090
0090
0090
0090
0090
8FC0
ENDCHAR
STARTCHAR asciicircum
ENCODING 94
SWIDTH 459 0
DWIDTH 5 0
BBX 5 3 0 4
BITMAP
05D000
0B5700
640910
ENDCHAR
STARTCHAR underscore
ENCODING 95
SWIDTH 500 0
DWIDTH 5 0
BBX 5 1 0 -2
BITMAP
FFFFF0
ENDCHAR
STARTCHAR grave
ENCODING 96
SWIDTH 527 0
DWIDTH 5 0
BBX 3 2 1 6
BITMAP
A200
2920
ENDCHAR
STARTCHAR a
ENCODING 97
SWIDTH 888 0
DWIDTH 9 0
BBX 8 7 0 0
BITMAP
0BFFFD91
00000279
0000000A
0169BDEC
2B742109
5810138B
09EFEB7A
ENDCHAR
STARTCHAR b
ENCODING 98
SWIDTH 836 0
DWIDTH 8 0
BBX 7 7 1 0
BITMAP
DFFFEA00
90001840
90001830
DFFFFA10
90001490
900003A0
DFFFFC30
ENDCHAR
STARTCHAR c
ENCODING 99
SWIDTH 869 0
DWIDTH 9 0
BBX 8 7 0 0
BITMAP
007CEFFF
0A930000
39000000
55000000
39000000
0A830000
007CFFFF
ENDCHAR
STARTCHAR d
ENCODING 100
SWIDTH 910 0
DWIDTH 9 0
BBX 8 7 1 0
BITMAP
DFFFDA20
900015C1
90000065
90000036
90000065
900015D1
DFFFEA20
ENDCHAR
STARTCHAR e
ENCODING 101
SWIDTH 910 0
DWIDTH 9 0
BBX 9 7 0 0
BITMAP
007DFE8100
0982026A00
3800000530
5FFFFFFF60
3700000000
0983100000
006CEFFD00
ENDCHAR
STARTCHAR f
ENCODING 102
SWIDTH 817 0
DWIDTH 8 0
BBX 7 7 1 0
BITMAP
2AEFFF80
A5100000
90000000
DFFFFF70
90000000
90000000
90000000
ENDCHAR
STARTCHAR g
ENCODING 103
SWIDTH 910 0
DWIDTH 9 0
BBX 9 7 0 0
BITMAP
007CEFFF20
0A93100000
3900000000
5500000000
39001FFF40
0993101640
006CEFEB20
ENDCHAR
STARTCHAR h
ENCODING 104
SWIDTH 949 0
DWIDTH 10 0
BBX 8 7 1 0
BITMAP
90000045
90000045
90000045
DFFFFFF5
90000045
90000045
90000045
ENDCHAR
STARTCHAR i
ENCODING 105
SWIDTH 287 0
DWIDTH 3 0
BBX 1 7 1 0
BITMAP
90
90
90
90
90
90
90
ENDCHAR
STARTCHAR j
ENCODING 106
SWIDTH 590 0
DWIDTH 6 0
BBX 5 7 0 0
BITMAP
000090
000090
000090
000090
0000A0
000690
FFEB10
ENDCHAR
STARTCHAR k
ENCODING 107
SWIDTH 867 0
DWIDTH 9 0
BBX 7 7 1 0
BITMAP
90000280
90000A20
9015A400
DFFD4000
90139A10
90000480
900000A0
ENDCHAR
STARTCHAR l
ENCODING 108
SWIDTH 709 0
DWIDTH 7 0
BBX 6 7 1 0
BITMAP
900000
900000
900000
900000
900000
B40000
4CFFFF
ENDCHAR
STARTCHAR m
ENCODING 109
SWIDTH 1246 0
DWIDTH 12 0
BBX 11 7 1 0
BITMAP
96DE918EE700
DA219D711A30
A00028000450
900018000450
900018000450
900018000450
900018000450
ENDCHAR
STARTCHAR n
ENCODING 110
SWIDTH 933 0
DWIDTH 9 0
BBX 8 7 1 0
BITMAP
928DFD50
CD6202C1
A0000063
90000064
90000064
90000064
90000064
ENDCHAR
STARTCHAR o
ENCODING 111
SWIDTH 983 0
DWIDTH 10 0
BBX 10 7 0 0
BITMAP
007CEEC600
0B83113A70
39000000B1
5500000082
39000000B1
0A82113A80
007CEEC600
ENDCHAR
STARTCHAR p
ENCODING 112
SWIDTH 818 0
DWIDTH 8 0
BBX 7 7 1 0
BITMAP
DFFFEA10
90001580
90000480
DFFFEA10
90000000
90000000
90000000
ENDCHAR
STARTCHAR q
ENCODING 113
SWIDTH 983 0
DWIDTH 10 0
BBX 10 7 0 0
BITMAP
007CEEC600
0B83113A70
39000000B1
5500000082
39000000B1
0A82113A70
007CEEC9B9
ENDCHAR
STARTCHAR r
ENCODING 114
SWIDTH 609 0
DWIDTH 6 0
BBX 6 7 1 0
BITMAP
92AEE1
BC5110
B10000
900000
900000
900000
900000
ENDCHAR
STARTCHAR s
ENCODING 115
SWIDTH 787 0
DWIDTH 8 0
BBX 7 7 0 0
BITMAP
06DFFF80
2A200000
0A730000
0059B920
000002A0
000003C0
2FFFEC40
ENDCHAR
STARTCHAR t
ENCODING 116
SWIDTH 708 0
DWIDTH 7 0
BBX 7 7 0 0
BITMAP
CFFFFFE0
00090000
00090000
00090000
00090000
00090000
00090000
ENDCHAR
STARTCHAR u
ENCODING 117
SWIDTH 931 0
DWIDTH 9 0
BBX 8 7 1 0
BITMAP
90000073
90000073
90000073
90000073
A0000083
B4015BD3
2BEEA473
ENDCHAR
STARTCHAR v
ENCODING 118
SWIDTH 817 0
DWIDTH 8 0
BBX 8 7 0 0
BITMAP
73000019
1A000083
083001A0
01A00830
00931A00
002B8400
0009B000
ENDCHAR
STARTCHAR w
ENCODING 119
SWIDTH 1266 0
DWIDTH 13 0
BBX 13 7 0 0
BITMAP
740004D0000920
19000964000A00
09101919005500
0460540910A000
00A09004628000
00748000973000
002D30007A0000
ENDCHAR
STARTCHAR x
ENCODING 120
SWIDTH 821 0
DWIDTH 8 0
BBX 8 7 0 0
BITMAP
1A100083
02900740
00386500
0008B000
00474700
03800560
29000065
ENDCHAR
STARTCHAR y
ENCODING 121
SWIDTH 911 0
DWIDTH 9 0
BBX 8 7 0 0
BITMAP
18000009
18000009
1A00001D
0B6115CC
01AEEA2A
00001389
1FFFEC70
ENDCHAR
STARTCHAR z
ENCODING 122
SWIDTH 728 0
DWIDTH 7 0
BBX 7 7 0 0
BITMAP
2FFFFF70
00001700
00007000
00071000
00610000
05200000
3FFFFF90
ENDCHAR
STARTCHAR braceleft
ENCODING 123
SWIDTH 386 0
DWIDTH 4 0
BBX 4 8 0 -1
BITMAP
03E5
0820
0900
0A00
B900
0A00
0920
05E5
ENDCHAR
STARTCHAR bar
ENCODING 124
SWIDTH 259 0
DWIDTH 3 0
BBX 1 10 1 -2
BITMAP
90
90
90
90
90
90
90
90
90
90
ENDCHAR
STARTCHAR braceright
ENCODING 125
SWIDTH 386 0
DWIDTH 4 0
BBX 4 8 0 -1
BITMAP
7D20
0560
0370
0190
00B8
0290
0460
8E30
ENDCHAR
STARTCHAR asciitilde
ENCODING 126
SWIDTH 634 0
DWIDTH 6 0
BBX 6 2 0 3
BITMAP
1CC515
333AE4
ENDCHAR
STARTCHAR nonbreakingspace
ENCODING 160
SWIDTH 375 0
DWIDTH 4 0
BBX 1 1 0 0
BITMAP
00
ENDCHAR
STARTCHAR exclamdown
ENCODING 161
SWIDTH 274 0
DWIDTH 3 0
BBX 1 7 1 0
BITMAP
B0
00
70
80
90
B0
B0
ENDCHAR
STARTCHAR cent
ENCODING 162
SWIDTH 736 0
DWIDTH 7 0
BBX 7 8 0 -1
BITMAP
00034000
03AEFFD0
1C444000
64034000
64034000
2C444000
03AEFFD0
00034000
ENDCHAR
STARTCHAR sterling
ENCODING 163
SWIDTH 792 0
DWIDTH 8 0
BBX 8 7 0 0
BITMAP
002BEFE0
00B41000
00A00000
6FFFFD00
00900000
05800000
6FFFFFF5
ENDCHAR
STARTCHAR currency
ENCODING 164
SWIDTH 560 0
DWIDTH 6 0
BBX 5 6 0 1
BITMAP
210030
1BEC80
0A1370
0A1370
1BEC80
110020
ENDCHAR
STARTCHAR yen
ENCODING 165
SWIDTH 811 0
DWIDTH 8 0
BBX 8 7 0 0
BITMAP
29000083
04700650
00743800
1FFEDFF3
00057000
1FFFFFF3
00045000
ENDCHAR
STARTCHAR brokenbar
ENCODING 166
SWIDTH 259 0
DWIDTH 3 0
BBX 1 9 1 -2
BITMAP
90
90
90
90
00
90
90
90
90
ENDCHAR
STARTCHAR section
ENCODING 167
SWIDTH 500 0
DWIDTH 5 0
BBX 5 7 0 0
BITMAP
0BFE00
0B3000
2BDA10
570650
08EB10
001B10
2FFB00
ENDCHAR
STARTCHAR dieresis
ENCODING 168
SWIDTH 527 0
DWIDTH 5 0
BBX 3 1 1 6
BITMAP
B0B0
ENDCHAR
STARTCHAR copyright
ENCODING 169
SWIDTH 770 0
DWIDTH 8 0
BBX 8 7 0 0
BITMAP
01AED700
0B512890
548EF481
71A10043
548EF481
0B512790
02AEE800
ENDCHAR
STARTCHAR ordfeminine
ENCODING 170
SWIDTH 497 0
DWIDTH 5 0
BBX 5 5 0 2
BITMAP
5FFD30
4BEF60
7EFC60
000000
8FFF60
ENDCHAR
STARTCHAR guillemotleft
ENCODING 171
SWIDTH 440 0
DWIDTH 4 0
BBX 4 3 0 2
BITMAP
1828
83A1
1928
ENDCHAR
STARTCHAR logicalnot
ENCODING 172
SWIDTH 634 0
DWIDTH 6 0
BBX 6 3 0 2
BITMAP
2FFFF8
000008
000008
ENDCHAR
STARTCHAR uni00AD
ENCODING 173
SWIDTH 540 0
DWIDTH 5 0
BBX 5 1 0 3
BITMAP
3FFF90
ENDCHAR
STARTCHAR registered
ENCODING 174
SWIDTH 600 0
DWIDTH 6 0
BBX 6 5 0 2
BITMAP
06DD60
38FE93
60FD16
388793
06EE60
ENDCHAR
STARTCHAR macron
ENCODING 175
SWIDTH 527 0
DWIDTH 5 0
BBX 3 1 1 6
BITMAP
BFF0
ENDCHAR
STARTCHAR degree
ENCODING 176
SWIDTH 373 0
DWIDTH 4 0
BBX 3 2 0 5
BITMAP
2EC0
2EC0
ENDCHAR
STARTCHAR plusminus
ENCODING 177
SWIDTH 634 0
DWIDTH 6 0
BBX 6 6 0 0
BITMAP
001700
001700
2FFFF8
001700
001700
2FFFF8
ENDCHAR
STARTCHAR twosuperior
ENCODING 178
SWIDTH 511 0
DWIDTH 5 0
BBX 5 4 0 3
BITMAP
9FFC20
000560
023400
9FFF80
ENDCHAR
STARTCHAR threesuperior
ENCODING 179
SWIDTH 512 0
DWIDTH 5 0
BBX 5 4 0 3
BITMAP
8FFD20
05FB10
001760
AFFB20
ENDCHAR
STARTCHAR acute
ENCODING 180
SWIDTH 527 0
DWIDTH 5 0
BBX 3 2 2 6
BITMAP
0830
9400
ENDCHAR
STARTCHAR micro
ENCODING 181
SWIDTH 705 0
DWIDTH 7 0
BBX 7 7 0 -2
BITMAP
07200910
09000A00
08001A00
1D22B800
39ED4800
63000000
91000000
ENDCHAR
STARTCHAR paragraph
ENCODING 182
SWIDTH 585 0
DWIDTH 6 0
BBX 5 7 0 0
BITMAP
09EFA0
4FF470
4FF470
09E470
002470
002470
002470
ENDCHAR
STARTCHAR periodcentered
ENCODING 183
SWIDTH 185 0
DWIDTH 2 0
BBX 2 1 0 3
BITMAP
85
ENDCHAR
STARTCHAR cedilla
ENCODING 184
SWIDTH 527 0
DWIDTH 5 0
BBX 3 2 1 -2
BITMAP
0A90
7F80
ENDCHAR
STARTCHAR onesuperior
ENCODING 185
SWIDTH 261 0
DWIDTH 3 0
BBX 2 4 0 3
BITMAP
EB
08
08
08
ENDCHAR
STARTCHAR ordmasculine
ENCODING 186
SWIDTH 520 0
DWIDTH 5 0
BBX 5 5 0 2
BITMAP
3CFD50
9302A0
3CFD50
000000
7FFFA0
ENDCHAR
STARTCHAR guillemotright
ENCODING 187
SWIDTH 440 0
DWIDTH 4 0
BBX 4 3 0 2
BITMAP
4663
092B
4663
ENDCHAR
STARTCHAR onequarter
ENCODING 188
SWIDTH 857 0
DWIDTH 9 0
BBX 9 7 0 0
BITMAP
CC00046000
0800180000
0800910000
080724E200
0045587200
0280FFFF10
0900006200
ENDCHAR
STARTCHAR onehalf
ENCODING 189
SWIDTH 937 0
DWIDTH 9 0
BBX 9 7 0 0
BITMAP
CC00046000
0800180000
0800910000
08072CFD30
0045000370
0280003500
09000CFF80
ENDCHAR
STARTCHAR threequarters
ENCODING 190
SWIDTH 978 0
DWIDTH 10 0
BBX 10 7 0 0
BITMAP
6FE7002800
05B6009100
025A082000
8FE7552C50
0002838450
00190BFFF4
0082000350
ENDCHAR
STARTCHAR questiondown
ENCODING 191
SWIDTH 568 0
DWIDTH 6 0
BBX 6 7 0 0
BITMAP
000920
000000
000820
048610
270000
3A1000
08EFF1
ENDCHAR
STARTCHAR Agrave
ENCODING 192
SWIDTH 812 0
DWIDTH 8 0
BBX 8 10 0 0
BITMAP
00750000
00066000
00000000
0008A000
001B9300
00842A00
01B00A30
085003A0
1EFFFFF3
8500004A
ENDCHAR
STARTCHAR Aacute
ENCODING 193
SWIDTH 812 0
DWIDTH 8 0
BBX 8 10 0 0
BITMAP
00004800
00047000
00000000
0008A000
001B9300
00842A00
01B00A30
085003A0
1EFFFFF3
8500004A
ENDCHAR
STARTCHAR Acircumflex
ENCODING 194
SWIDTH 812 0
DWIDTH 8 0
BBX 8 10 0 0
BITMAP
00078000
00621700
00000000
0008A000
001B9300
00842A00
01B00A30
085003A0
1EFFFFF3
8500004A
ENDCHAR
STARTCHAR Atilde
ENCODING 195
SWIDTH 812 0
DWIDTH 8 0
BBX 8 10 0 0
BITMAP
004D3700
0073C700
00000000
0008A000
001B9300
00842A00
01B00A30
085003A0
1EFFFFF3
8500004A
ENDCHAR
STARTCHAR Adieresis
ENCODING 196
SWIDTH 812 0
DWIDTH 8 0
BBX 8 9 0 0
BITMAP
00474600
00000000
0008A000
001B9300
00842A00
01B00A30
085003A0
1EFFFFF3
8500004A
ENDCHAR
STARTCHAR Aring
ENCODING 197
SWIDTH 812 0
DWIDTH 8 0
BBX 8 10 0 0
BITMAP
001DE300
001DE300
00000000
0008A000
001B9300
00842A00
01B00A30
085003A0
1EFFFFF3
8500004A
ENDCHAR
STARTCHAR AE
ENCODING 198
SWIDTH 1172 0
DWIDTH 12 0
BBX 11 7 0 0
BITMAP
0000CFFFFFE0
00066A000000
00280A000000
00700AFFFFA0
06FFFF000000
19000A000000
A2000AFFFFF0
ENDCHAR
STARTCHAR Ccedilla
ENCODING 199
SWIDTH 869 0
DWIDTH 9 0
BBX 8 9 0 -2
BITMAP
007CEFFF
0A930000
39000000
55000000
39000000
0A830000
007CFFFF
0000B900
0007F800
ENDCHAR
STARTCHAR Egrave
ENCODING 200
SWIDTH 754 0
DWIDTH 8 0
BBX 6 10 1 0
BITMAP
094000
018400
000000
DFFFFB
A00000
A00000
DFFFF7
A00000
A00000
DFFFFC
ENDCHAR
STARTCHAR Eacute
ENCODING 201
SWIDTH 754 0
DWIDTH 8 0
BBX 6 10 1 0
BITMAP
000660
007600
000000
DFFFFB
A00000
A00000
DFFFF7
A00000
A00000
DFFFFC
ENDCHAR
STARTCHAR Ecircumflex
ENCODING 202
SWIDTH 754 0
DWIDTH 8 0
BBX 6 10 1 0
BITMAP
008600
071350
000000
DFFFFB
A00000
A00000
DFFFF7
A00000
A00000
DFFFFC
ENDCHAR
STARTCHAR Edieresis
ENCODING 203
SWIDTH 754 0
DWIDTH 8 0
BBX 6 9 1 0
BITMAP
074830
000000
DFFFFB
A00000
A00000
DFFFF7
A00000
A00000
DFFFFC
ENDCHAR
STARTCHAR Igrave
ENCODING 204
SWIDTH 287 0
DWIDTH 3 0
BBX 3 10 -1 0
BITMAP
2910
0390
0000
0090
0090
0090
0090
0090
0090
0090
ENDCHAR
STARTCHAR Iacute
ENCODING 205
SWIDTH 287 0
DWIDTH 3 0
BBX 4 10 0 0
BITMAP
01A1
1920
0000
0900
0900
0900
0900
0900
0900
0900
ENDCHAR
STARTCHAR Icircumflex
ENCODING 206
SWIDTH 287 0
DWIDTH 3 0
BBX 5 10 -1 0
BITMAP
039200
350620
000000
009000
009000
009000
009000
009000
009000
009000
ENDCHAR
STARTCHAR Idieresis
ENCODING 207
SWIDTH 287 0
DWIDTH 3 0
BBX 3 9 0 0
BITMAP
B0B0
0000
0900
0900
0900
0900
0900
0900
0900
ENDCHAR
STARTCHAR Eth
ENCODING 208
SWIDTH 910 0
DWIDTH 9 0
BBX 9 7 0 0
BITMAP
0DFFFD9200
0900127C10
0900000650
DFFF700360
0900000650
0900015C10
0DFFFDA200
ENDCHAR
STARTCHAR Ntilde
ENCODING 209
SWIDTH 936 0
DWIDTH 9 0
BBX 8 10 1 0
BITMAP
00AA3500
0086D200
00000000
D4000064
99400064
90930064
90092064
9001A264
90001A74
900001C4
ENDCHAR
STARTCHAR Ograve
ENCODING 210
SWIDTH 983 0
DWIDTH 10 0
BBX 10 10 0 0
BITMAP
0008400000
0000750000
0000000000
007CEEC600
0B83113A70
39000000B1
5500000082
39000000B1
0A82113A80
007CEEC600
ENDCHAR
STARTCHAR Oacute
ENCODING 211
SWIDTH 983 0
DWIDTH 10 0
BBX 10 10 0 0
BITMAP
0000057000
0000660000
0000000000
007CEEC600
0B83113A70
39000000B1
5500000082
39000000B1
0A82113A80
007CEEC600
ENDCHAR
STARTCHAR Ocircumflex
ENCODING 212
SWIDTH 983 0
DWIDTH 10 0
BBX 10 10 0 0
BITMAP
0000870000
0007126000
0000000000
007CEEC600
0B83113A70
39000000B1
5500000082
39000000B1
0A82113A80
007CEEC600
ENDCHAR
STARTCHAR Otilde
ENCODING 213
SWIDTH 983 0
DWIDTH 10 0
BBX 10 10 0 0
BITMAP
0006C37000
00084D5000
0000000000
007CEEC600
0B83113A70
39000000B1
5500000082
39000000B1
0A82113A80
007CEEC600
ENDCHAR
STARTCHAR Odieresis
ENCODING 214
SWIDTH 983 0
DWIDTH 10 0
BBX 10 9 0 0
BITMAP
0006574000
0000000000
007CEEC600
0B83113A70
39000000B1
5500000082
39000000B1
0A82113A80
007CEEC600
ENDCHAR
STARTCHAR multiply
ENCODING 215
SWIDTH 634 0
DWIDTH 6 0
BBX 5 4 1 1
BITMAP
720810
099200
099200
720810
ENDCHAR
STARTCHAR Oslash
ENCODING 216
SWIDTH 983 0
DWIDTH 10 0
BBX 10 9 0 -1
BITMAP
0000000810
007CEEC900
0B83119980
39000720A1
5500540072
38046000B1
0B89013A80
00BDFEC600
0270000000
ENDCHAR
STARTCHAR Ugrave
ENCODING 217
SWIDTH 891 0
DWIDTH 9 0
BBX 7 10 1 0
BITMAP
02910000
00390000
00000000
90000090
90000090
90000090
90000090
A00000A0
B7202890
1AEFD910
ENDCHAR
STARTCHAR Uacute
ENCODING 218
SWIDTH 891 0
DWIDTH 9 0
BBX 7 10 1 0
BITMAP
0001A100
00092000
00000000
90000090
90000090
90000090
90000090
A00000A0
B7202890
1AEFD910
ENDCHAR
STARTCHAR Ucircumflex
ENCODING 219
SWIDTH 891 0
DWIDTH 9 0
BBX 7 10 1 0
BITMAP
00392000
03606200
00000000
90000090
90000090
90000090
90000090
A00000A0
B7202890
1AEFD910
ENDCHAR
STARTCHAR Udieresis
ENCODING 220
SWIDTH 891 0
DWIDTH 9 0
BBX 7 9 1 0
BITMAP
00B0B000
00000000
90000090
90000090
90000090
90000090
A00000A0
B7202890
1AEFD910
ENDCHAR
STARTCHAR Yacute
ENCODING 221
SWIDTH 763 0
DWIDTH 8 0
BBX 8 10 0 0
BITMAP
00006600
00075000
00000000
470001A1
07500A20
00A38500
001C8000
00072000
00072000
00072000
ENDCHAR
STARTCHAR Thorn
ENCODING 222
SWIDTH 787 0
DWIDTH 8 0
BBX 7 7 1 0
BITMAP
90000000
DFFFD700
90002A20
90001A20
DFFFD700
90000000
90000000
ENDCHAR
STARTCHAR germandbls
ENCODING 223
SWIDTH 863 0
DWIDTH 9 0
BBX 8 7 0 0
BITMAP
02AEFD70
0C510295
19000184
180DFFB1
1800015A
1800003C
188FFEC4
ENDCHAR
STARTCHAR agrave
ENCODING 224
SWIDTH 888 0
DWIDTH 9 0
BBX 8 10 0 0
BITMAP
00391000
00039000
00000000
0BFFFD91
00000279
0000000A
0169BDEC
2B742109
5810138B
09EFEB7A
ENDCHAR
STARTCHAR aacute
ENCODING 225
SWIDTH 888 0
DWIDTH 9 0
BBX 8 10 0 0
BITMAP
00001A00
00019200
00000000
0BFFFD91
00000279
0000000A
0169BDEC
2B742109
5810138B
09EFEB7A
ENDCHAR
STARTCHAR acircumflex
ENCODING 226
SWIDTH 888 0
DWIDTH 9 0
BBX 8 10 0 0
BITMAP
00049200
00350620
00000000
0BFFFD91
00000279
0000000A
0169BDEC
2B742109
5810138B
09EFEB7A
ENDCHAR
STARTCHAR atilde
ENCODING 227
SWIDTH 888 0
DWIDTH 9 0
BBX 8 10 0 0
BITMAP
001D7710
00449B00
00000000
0BFFFD91
00000279
0000000A
0169BDEC
2B742109
5810138B
09EFEB7A
ENDCHAR
STARTCHAR adieresis
ENCODING 228
SWIDTH 888 0
DWIDTH 9 0
BBX 8 9 0 0
BITMAP
000B0B00
00000000
0BFFFD91
00000279
0000000A
0169BDEC
2B742109
5810138B
09EFEB7A
ENDCHAR
STARTCHAR aring
ENCODING 229
SWIDTH 888 0
DWIDTH 9 0
BBX 8 10 0 0
BITMAP
0009E700
0009F700
00000000
0BFFFD91
00000279
0000000A
0169BDEC
2B742109
5810138B
09EFEB7A
ENDCHAR
STARTCHAR ae
ENCODING 230
SWIDTH 1551 0
DWIDTH 16 0
BBX 15 7 0 0
BITMAP
0BFFFD913AEFC400
0000027BB4113A40
0000000C10000090
0169BDEFFFFFFFE0
2B74210B10000000
5810126BB5100000
09EFEB613AEFFF60
ENDCHAR
STARTCHAR ccedilla
ENCODING 231
SWIDTH 869 0
DWIDTH 9 0
BBX 8 9 0 -2
BITMAP
007CEFFF
0A930000
39000000
55000000
39000000
0A830000
007CFFFF
0000B900
0007F800
ENDCHAR
STARTCHAR egrave
ENCODING 232
SWIDTH 910 0
DWIDTH 9 0
BBX 9 10 0 0
BITMAP
001A100000
0002910000
0000000000
007DFE8100
0982026A00
3800000530
5FFFFFFF60
3700000000
0983100000
006CEFFD00
ENDCHAR
STARTCHAR eacute
ENCODING 233
SWIDTH 910 0
DWIDTH 9 0
BBX 9 10 0 0
BITMAP
0000192000
0000930000
0000000000
007DFE8100
0982026A00
3800000530
5FFFFFFF60
3700000000
0983100000
006CEFFD00
ENDCHAR
STARTCHAR ecircumflex
ENCODING 234
SWIDTH 910 0
DWIDTH 9 0
BBX 9 10 0 0
BITMAP
0002930000
0026053000
0000000000
007DFE8100
0982026A00
3800000530
5FFFFFFF60
3700000000
0983100000
006CEFFD00
ENDCHAR
STARTCHAR edieresis
ENCODING 235
SWIDTH 910 0
DWIDTH 9 0
BBX 9 9 0 0
BITMAP
000B0B0000
0000000000
007DFE8100
0982026A00
3800000530
5FFFFFFF60
3700000000
0983100000
006CEFFD00
ENDCHAR
STARTCHAR igrave
ENCODING 236
SWIDTH 287 0
DWIDTH 3 0
BBX 3 10 -1 0
BITMAP
2910
0390
0000
0090
0090
0090
0090
0090
0090
0090
ENDCHAR
STARTCHAR iacute
ENCODING 237
SWIDTH 287 0
DWIDTH 3 0
BBX 4 10 0 0
BITMAP
01A1
1920
0000
0900
0900
0900
0900
0900
0900
0900
ENDCHAR
STARTCHAR icircumflex
ENCODING 238
SWIDTH 287 0
DWIDTH 3 0
BBX 5 10 -1 0
BITMAP
039200
350620
000000
009000
009000
009000
009000
009000
009000
009000
ENDCHAR
STARTCHAR idieresis
ENCODING 239
SWIDTH 287 0
DWIDTH 3 0
BBX 3 9 0 0
BITMAP
B0B0
0000
0900
0900
0900
0900
0900
0900
0900
ENDCHAR
STARTCHAR eth
ENCODING 240
SWIDTH 910 0
DWIDTH 9 0
BBX 9 7 0 0
BITMAP
0DFFFD9200
0900127C10
0900000650
DFFF700360
0900000650
0900015C10
0DFFFDA200
ENDCHAR
STARTCHAR ntilde
ENCODING 241
SWIDTH 933 0
DWIDTH 9 0
BBX 8 10 1 0
BITMAP
00B94400
0167D100
00000000
928DFD50
CD6202C1
A0000063
90000064
90000064
90000064
90000064
ENDCHAR
STARTCHAR ograve
ENCODING 242
SWIDTH 983 0
DWIDTH 10 0
BBX 10 10 0 0
BITMAP
0008400000
0000750000
0000000000
007CEEC600
0B83113A70
39000000B1
5500000082
39000000B1
0A82113A80
007CEEC600
ENDCHAR
STARTCHAR oacute
ENCODING 243
SWIDTH 983 0
DWIDTH 10 0
BBX 10 10 0 0
BITMAP
0000057000
0000660000
0000000000
007CEEC600
0B83113A70
39000000B1
5500000082
39000000B1
0A82113A80
007CEEC600
ENDCHAR
STARTCHAR ocircumflex
ENCODING 244
SWIDTH 983 0
DWIDTH 10 0
BBX 10 10 0 0
BITMAP
0000870000
0007126000
0000000000
007CEEC600
0B83113A70
39000000B1
5500000082
39000000B1
0A82113A80
007CEEC600
ENDCHAR
STARTCHAR otilde
ENCODING 245
SWIDTH 983 0
DWIDTH 10 0
BBX 10 10 0 0
BITMAP
0006C37000
00084D5000
0000000000
007CEEC600
0B83113A70
39000000B1
5500000082
39000000B1
0A82113A80
007CEEC600
ENDCHAR
STARTCHAR odieresis
ENCODING 246
SWIDTH 983 0
DWIDTH 10 0
BBX 10 9 0 0
BITMAP
0006574000
0000000000
007CEEC600
0B83113A70
39000000B1
5500000082
39000000B1
0A82113A80
007CEEC600
ENDCHAR
STARTCHAR divide
ENCODING 247
SWIDTH 634 0
DWIDTH 6 0
BBX 6 5 0 1
BITMAP
002700
000000
2FFFF8
000000
002700
ENDCHAR
STARTCHAR oslash
ENCODING 248
SWIDTH 983 0
DWIDTH 10 0
BBX 10 9 0 -1
BITMAP
0000000810
007CEEC900
0B83119980
39000720A1
5500540072
38046000B1
0B89013A80
00BDFEC600
0270000000
ENDCHAR
STARTCHAR ugrave
ENCODING 249
SWIDTH 931 0
DWIDTH 9 0
BBX 8 10 1 0
BITMAP
00A20000
00292000
00000000
90000073
90000073
90000073
90000073
A0000083
B4015BD3
2BEEA473
ENDCHAR
STARTCHAR uacute
ENCODING 250
SWIDTH 931 0
DWIDTH 9 0
BBX 8 10 1 0
BITMAP
00008300
00094000
00000000
90000073
90000073
90000073
90000073
A0000083
B4015BD3
2BEEA473
ENDCHAR
STARTCHAR ucircumflex
ENCODING 251
SWIDTH 931 0
DWIDTH 9 0
BBX 8 10 1 0
BITMAP
00294000
01705300
00000000
90000073
90000073
90000073
90000073
A0000083
B4015BD3
2BEEA473
ENDCHAR
STARTCHAR udieresis
ENCODING 252
SWIDTH 931 0
DWIDTH 9 0
BBX 8 9 1 0
BITMAP
00B0B000
00000000
90000073
90000073
90000073
90000073
A0000083
B4015BD3
2BEEA473
ENDCHAR
STARTCHAR yacute
ENCODING 253
SWIDTH 911 0
DWIDTH 9 0
BBX 8 10 0 0
BITMAP
00001A10
00019200
00000000
18000009
18000009
1A00001D
0B6115CC
01AEEA2A
00001389
1FFFEC70
ENDCHAR
STARTCHAR thorn
ENCODING 254
SWIDTH 787 0
DWIDTH 8 0
BBX 7 7 1 0
BITMAP
90000000
DFFFD700
90002A20
90001A20
DFFFD700
90000000
90000000
ENDCHAR
STARTCHAR ydieresis
ENCODING 255
SWIDTH 911 0
DWIDTH 9 0
BBX 8 9 0 0
BITMAP
000B0B00
00000000
18000009
18000009
1A00001D
0B6115CC
01AEEA2A
00001389
1FFFEC70
ENDCHAR
STARTCHAR Amacron
ENCODING 256
SWIDTH 812 0
DWIDTH 8 0
BBX 8 9 0 0
BITMAP
004FF600
00000000
0008A000
001B9300
00842A00
01B00A30
085003A0
1EFFFFF3
8500004A
ENDCHAR
STARTCHAR amacron
ENCODING 257
SWIDTH 888 0
DWIDTH 9 0
BBX 8 9 0 0
BITMAP
000EFB00
00000000
0BFFFD91
00000279
0000000A
0169BDEC
2B742109
5810138B
09EFEB7A
ENDCHAR
STARTCHAR Abreve
ENCODING 258
SWIDTH 812 0
DWIDTH 8 0
BBX 8 9 0 0
BITMAP
004EE600
00000000
0008A000
001B9300
00842A00
01B00A30
085003A0
1EFFFFF3
8500004A
ENDCHAR
STARTCHAR abreve
ENCODING 259
SWIDTH 888 0
DWIDTH 9 0
BBX 8 9 0 0
BITMAP
001CFA00
00000000
0BFFFD91
00000279
0000000A
0169BDEC
2B742109
5810138B
09EFEB7A
ENDCHAR
STARTCHAR Aogonek
ENCODING 260
SWIDTH 812 0
DWIDTH 8 0
BBX 9 9 0 -2
BITMAP
0008900000
0019830000
00831A0000
01B0093000
085003A000
1EFFFFF300
8500003A00
0000004400
0000006F90
ENDCHAR
STARTCHAR aogonek
ENCODING 261
SWIDTH 888 0
DWIDTH 9 0
BBX 9 9 0 -2
BITMAP
0BFFFD9100
0000027900
0000000A00
0169BDEC00
2B74210900
5810024A00
09EFEB7A00
0000005300
0000007F80
ENDCHAR
STARTCHAR Cacute
ENCODING 262
SWIDTH 869 0
DWIDTH 9 0
BBX 8 10 0 0
BITMAP
00000660
00007600
00000000
007CEFFF
0A930000
39000000
55000000
39000000
0A830000
007CFFFF
ENDCHAR
STARTCHAR cacute
ENCODING 263
SWIDTH 869 0
DWIDTH 9 0
BBX 8 10 0 0
BITMAP
00000660
00007600
00000000
007CEFFF
0A930000
39000000
55000000
39000000
0A830000
007CFFFF
ENDCHAR
STARTCHAR Ccircumflex
ENCODING 264
SWIDTH 869 0
DWIDTH 9 0
BBX 8 10 0 0
BITMAP
00008600
00071350
00000000
007CEFFF
0A930000
39000000
55000000
39000000
0A830000
007CFFFF
ENDCHAR
STARTCHAR ccircumflex
ENCODING 265
SWIDTH 869 0
DWIDTH 9 0
BBX 8 10 0 0
BITMAP
00008600
00071350
00000000
007CEFFF
0A930000
39000000
55000000
39000000
0A830000
007CFFFF
ENDCHAR
STARTCHAR Cdotaccent
ENCODING 266
SWIDTH 869 0
DWIDTH 9 0
BBX 8 9 0 0
BITMAP
00008400
00000000
007CEFFF
0A930000
39000000
55000000
39000000
0A830000
007CFFFF
ENDCHAR
STARTCHAR cdotaccent
ENCODING 267
SWIDTH 869 0
DWIDTH 9 0
BBX 8 9 0 0
BITMAP
00008400
00000000
007CEFFF
0A930000
39000000
55000000
39000000
0A830000
007CFFFF
ENDCHAR
STARTCHAR Ccaron
ENCODING 268
SWIDTH 869 0
DWIDTH 9 0
BBX 8 10 0 0
BITMAP
00071350
00008600
00000000
007CEFFF
0A930000
39000000
55000000
39000000
0A830000
007CFFFF
ENDCHAR
STARTCHAR ccaron
ENCODING 269
SWIDTH 869 0
DWIDTH 9 0
BBX 8 10 0 0
BITMAP
00071350
00008600
00000000
007CEFFF
0A930000
39000000
55000000
39000000
0A830000
007CFFFF
ENDCHAR
STARTCHAR Dcaron
ENCODING 270
SWIDTH 910 0
DWIDTH 9 0
BBX 8 10 1 0
BITMAP
07135000
01860000
00000000
DFFFDA20
900015C1
90000065
90000036
90000065
900015D1
DFFFEA20
ENDCHAR
STARTCHAR dcaron
ENCODING 271
SWIDTH 910 0
DWIDTH 9 0
BBX 8 10 1 0
BITMAP
07135000
01860000
00000000
DFFFDA20
900015C1
90000065
90000036
90000065
900015D1
DFFFEA20
ENDCHAR
STARTCHAR Dcroat
ENCODING 272
SWIDTH 910 0
DWIDTH 9 0
BBX 9 7 0 0
BITMAP
0DFFFD9200
0900127C10
0900000650
DFFF700360
0900000650
0900015C10
0DFFFDA200
ENDCHAR
STARTCHAR dcroat
ENCODING 273
SWIDTH 910 0
DWIDTH 9 0
BBX 9 7 0 0
BITMAP
0DFFFD9200
0900127C10
0900000650
DFFF700360
0900000650
0900015C10
0DFFFDA200
ENDCHAR
STARTCHAR Emacron
ENCODING 274
SWIDTH 754 0
DWIDTH 8 0
BBX 6 9 1 0
BITMAP
07FF30
000000
DFFFFB
A00000
A00000
DFFFF7
A00000
A00000
DFFFFC
ENDCHAR
STARTCHAR emacron
ENCODING 275
SWIDTH 910 0
DWIDTH 9 0
BBX 9 9 0 0
BITMAP
000CFE0000
0000000000
007DFE8100
0982026A00
3800000530
5FFFFFFF60
3700000000
0983100000
006CEFFD00
ENDCHAR
STARTCHAR Ebreve
ENCODING 276
SWIDTH 754 0
DWIDTH 8 0
BBX 6 9 1 0
BITMAP
07ED40
000000
DFFFFB
A00000
A00000
DFFFF7
A00000
A00000
DFFFFC
ENDCHAR
STARTCHAR ebreve
ENCODING 277
SWIDTH 910 0
DWIDTH 9 0
BBX 9 9 0 0
BITMAP
000BFC1000
0000000000
007DFE8100
0982026A00
3800000530
5FFFFFFF60
3700000000
0983100000
006CEFFD00
ENDCHAR
STARTCHAR Edotaccent
ENCODING 278
SWIDTH 754 0
DWIDTH 8 0
BBX 6 9 1 0
BITMAP
008400
000000
DFFFFB
A00000
A00000
DFFFF7
A00000
A00000
DFFFFC
ENDCHAR
STARTCHAR edotaccent
ENCODING 279
SWIDTH 910 0
DWIDTH 9 0
BBX 9 9 0 0
BITMAP
0000B00000
0000000000
007DFE8100
0982026A00
3800000530
5FFFFFFF60
3700000000
0983100000
006CEFFD00
ENDCHAR
STARTCHAR Eogonek
ENCODING 280
SWIDTH 754 0
DWIDTH 8 0
BBX 6 9 1 -2
BITMAP
DFFFFB
A00000
A00000
DFFFF7
A00000
A00000
DFFFFC
000261
0003EC
ENDCHAR
STARTCHAR eogonek
ENCODING 281
SWIDTH 910 0
DWIDTH 9 0
BBX 9 9 0 -2
BITMAP
007DFE8100
0982026A00
3800000530
5FFFFFFF60
3700000000
0983100000
006CEFFD00
0000008200
0000009F50
ENDCHAR
STARTCHAR Ecaron
ENCODING 282
SWIDTH 754 0
DWIDTH 8 0
BBX 6 10 1 0
BITMAP
071350
008600
000000
DFFFFB
A00000
A00000
DFFFF7
A00000
A00000
DFFFFC
ENDCHAR
STARTCHAR ecaron
ENCODING 283
SWIDTH 910 0
DWIDTH 9 0
BBX 9 10 0 0
BITMAP
0026053000
0002930000
0000000000
007DFE8100
0982026A00
3800000530
5FFFFFFF60
3700000000
0983100000
006CEFFD00
ENDCHAR
STARTCHAR Gcircumflex
ENCODING 284
SWIDTH 910 0
DWIDTH 9 0
BBX 9 10 0 0
BITMAP
0000870000
0007126000
0000000000
007CEFFF20
0A93100000
3900000000
5500000000
39001FFF40
0993101640
006CEFEB20
ENDCHAR
STARTCHAR gcircumflex
ENCODING 285
SWIDTH 910 0
DWIDTH 9 0
BBX 9 10 0 0
BITMAP
0000870000
0007126000
0000000000
007CEFFF20
0A93100000
3900000000
5500000000
39001FFF40
0993101640
006CEFEB20
ENDCHAR
STARTCHAR Gbreve
ENCODING 286
SWIDTH 910 0
DWIDTH 9 0
BBX 9 9 0 0
BITMAP
0006EE5000
0000000000
007CEFFF20
0A93100000
3900000000
5500000000
39001FFF40
0993101640
006CEFEB20
ENDCHAR
STARTCHAR gbreve
ENCODING 287
SWIDTH 910 0
DWIDTH 9 0
BBX 9 9 0 0
BITMAP
0006EE5000
0000000000
007CEFFF20
0A93100000
3900000000
5500000000
39001FFF40
0993101640
006CEFEB20
ENDCHAR
STARTCHAR Gdotaccent
ENCODING 288
SWIDTH 910 0
DWIDTH 9 0
BBX 9 9 0 0
BITMAP
0000650000
0000000000
007CEFFF20
0A93100000
3900000000
5500000000
39001FFF40
0993101640
006CEFEB20
ENDCHAR
STARTCHAR gdotaccent
ENCODING 289
SWIDTH 910 0
DWIDTH 9 0
BBX 9 9 0 0
BITMAP
0000650000
0000000000
007CEFFF20
0A93100000
3900000000
5500000000
39001FFF40
0993101640
006CEFEB20
ENDCHAR
STARTCHAR Gcommaaccent
ENCODING 290
SWIDTH 910 0
DWIDTH 9 0
BBX 9 10 0 -3
BITMAP
007CEFFF20
0A93100000
3900000000
5500000000
39001FFF40
0993101640
006CEFEB20
0000000000
0000460000
0000630000
ENDCHAR
STARTCHAR gcommaaccent
ENCODING 291
SWIDTH 910 0
DWIDTH 9 0
BBX 9 10 0 -3
BITMAP
007CEFFF20
0A93100000
3900000000
5500000000
39001FFF40
0993101640
006CEFEB20
0000000000
0000460000
0000630000
ENDCHAR
STARTCHAR Hcircumflex
ENCODING 292
SWIDTH 949 0
DWIDTH 10 0
BBX 8 10 1 0
BITMAP
00195000
00714400
00000000
90000045
90000045
90000045
DFFFFFF5
90000045
90000045
90000045
ENDCHAR
STARTCHAR hcircumflex
ENCODING 293
SWIDTH 949 0
DWIDTH 10 0
BBX 8 10 1 0
BITMAP
00195000
00714400
00000000
90000045
90000045
90000045
DFFFFFF5
90000045
90000045
90000045
ENDCHAR
STARTCHAR Hbar
ENCODING 294
SWIDTH 949 0
DWIDTH 10 0
BBX 10 7 0 0
BITMAP
0900000450
BFFFFFFFF3
0900000450
0DFFFFFF50
0900000450
0900000450
0900000450
ENDCHAR
STARTCHAR hbar
ENCODING 295
SWIDTH 949 0
DWIDTH 10 0
BBX 10 7 0 0
BITMAP
0900000450
BFFFFFFFF3
0900000450
0DFFFFFF50
0900000450
0900000450
0900000450
ENDCHAR
STARTCHAR Itilde
ENCODING 296
SWIDTH 287 0
DWIDTH 3 0
BBX 5 10 -1 0
BITMAP
1D7620
459C00
000000
009000
009000
009000
009000
009000
009000
009000
ENDCHAR
STARTCHAR itilde
ENCODING 297
SWIDTH 287 0
DWIDTH 3 0
BBX 5 10 -1 0
BITMAP
0D7620
359C00
000000
009000
009000
009000
009000
009000
009000
009000
ENDCHAR
STARTCHAR Imacron
ENCODING 298
SWIDTH 287 0
DWIDTH 3 0
BBX 3 9 0 0
BITMAP
EFC0
0000
0900
0900
0900
0900
0900
0900
0900
ENDCHAR
STARTCHAR imacron
ENCODING 299
SWIDTH 287 0
DWIDTH 3 0
BBX 3 9 0 0
BITMAP
EFC0
0000
0900
0900
0900
0900
0900
0900
0900
ENDCHAR
STARTCHAR Ibreve
ENCODING 300
SWIDTH 287 0
DWIDTH 3 0
BBX 4 9 -1 0
BITMAP
1CFB
0000
0090
0090
0090
0090
0090
0090
0090
ENDCHAR
STARTCHAR ibreve
ENCODING 301
SWIDTH 287 0
DWIDTH 3 0
BBX 4 9 -1 0
BITMAP
1CFB
0000
0090
0090
0090
0090
0090
0090
0090
ENDCHAR
STARTCHAR Iogonek
ENCODING 302
SWIDTH 287 0
DWIDTH 3 0
BBX 3 9 0 -2
BITMAP
0900
0900
0900
0900
0900
0900
0900
6200
9F60
ENDCHAR
STARTCHAR iogonek
ENCODING 303
SWIDTH 287 0
DWIDTH 3 0
BBX 3 9 0 -2
BITMAP
0900
0900
0900
0900
0900
0900
0900
6200
9F60
ENDCHAR
STARTCHAR Idotaccent
ENCODING 304
SWIDTH 287 0
DWIDTH 3 0
BBX 1 9 1 0
BITMAP
B0
00
90
90
90
90
90
90
90
ENDCHAR
STARTCHAR dotlessi
ENCODING 305
SWIDTH 287 0
DWIDTH 3 0
BBX 1 7 1 0
BITMAP
90
90
90
90
90
90
90
ENDCHAR
STARTCHAR IJ
ENCODING 306
SWIDTH 877 0
DWIDTH 9 0
BBX 7 7 1 0
BITMAP
90000090
90000090
90000090
90000090
900000A0
90001780
92FFEA10
ENDCHAR
STARTCHAR ij
ENCODING 307
SWIDTH 877 0
DWIDTH 9 0
BBX 7 7 1 0
BITMAP
90000090
90000090
90000090
90000090
900000A0
90001780
92FFEA10
ENDCHAR
STARTCHAR Jcircumflex
ENCODING 308
SWIDTH 590 0
DWIDTH 6 0
BBX 7 10 0 0
BITMAP
00039300
00260620
00000000
00009000
00009000
00009000
00009000
0000A000
00069000
FFEB1000
ENDCHAR
STARTCHAR jcircumflex
ENCODING 309
SWIDTH 590 0
DWIDTH 6 0
BBX 7 10 0 0
BITMAP
00039300
00260620
00000000
00009000
00009000
00009000
00009000
0000A000
00069000
FFEB1000
ENDCHAR
STARTCHAR Kcommaaccent
ENCODING 310
SWIDTH 806 0
DWIDTH 8 0
BBX 7 10 1 -3
BITMAP
90003820
90076000
93920000
BC200000
91950000
90059100
90002A40
00000000
00460000
00620000
ENDCHAR
STARTCHAR kcommaaccent
ENCODING 311
SWIDTH 867 0
DWIDTH 9 0
BBX 7 10 1 -3
BITMAP
90000280
90000A20
9015A400
DFFD4000
90139A10
90000480
900000A0
00000000
000A0000
00170000
ENDCHAR
STARTCHAR kgreenlandic
ENCODING 312
SWIDTH 867 0
DWIDTH 9 0
BBX 7 7 1 0
BITMAP
90000280
90000A20
9015A400
DFFD4000
90139A10
90000480
900000A0
ENDCHAR
STARTCHAR Lacute
ENCODING 313
SWIDTH 701 0
DWIDTH 7 0
BBX 7 10 0 0
BITMAP
01A10000
19200000
00000000
09000000
09000000
09000000
09000000
09000000
09000000
0DFFFFA0
ENDCHAR
STARTCHAR lacute
ENCODING 314
SWIDTH 709 0
DWIDTH 7 0
BBX 7 10 0 0
BITMAP
01A10000
19200000
00000000
09000000
09000000
09000000
09000000
09000000
0B400000
04CFFFF0
ENDCHAR
STARTCHAR Lcommaaccent
ENCODING 315
SWIDTH 701 0
DWIDTH 7 0
BBX 6 10 1 -3
BITMAP
900000
900000
900000
900000
900000
900000
DFFFFA
000000
006400
007100
ENDCHAR
STARTCHAR lcommaaccent
ENCODING 316
SWIDTH 709 0
DWIDTH 7 0
BBX 6 10 1 -3
BITMAP
900000
900000
900000
900000
900000
B40000
4CFFFF
000000
003700
004400
ENDCHAR
STARTCHAR Lcaron
ENCODING 317
SWIDTH 701 0
DWIDTH 7 0
BBX 6 7 1 0
BITMAP
900730
900800
900000
900000
900000
900000
DFFFFA
ENDCHAR
STARTCHAR lcaron
ENCODING 318
SWIDTH 709 0
DWIDTH 7 0
BBX 6 7 1 0
BITMAP
900730
900800
900000
900000
900000
B40000
4CFFFF
ENDCHAR
STARTCHAR Ldot
ENCODING 319
SWIDTH 701 0
DWIDTH 7 0
BBX 6 7 1 0
BITMAP
900000
900000
900000
900850
900000
900000
DFFFFA
ENDCHAR
STARTCHAR ldotaccent
ENCODING 320
SWIDTH 709 0
DWIDTH 7 0
BBX 6 7 1 0
BITMAP
900000
900000
900000
900670
900000
B40000
4CFFFF
ENDCHAR
STARTCHAR Lslash
ENCODING 321
SWIDTH 701 0
DWIDTH 7 0
BBX 7 7 0 0
BITMAP
09000000
09000000
0B980000
AC300000
09000000
09000000
0DFFFFA0
ENDCHAR
STARTCHAR lslash
ENCODING 322
SWIDTH 709 0
DWIDTH 7 0
BBX 7 7 0 0
BITMAP
09000000
09000000
0B980000
AC300000
09000000
0A400000
03CFFFF0
ENDCHAR
STARTCHAR Nacute
ENCODING 323
SWIDTH 936 0
DWIDTH 9 0
BBX 8 10 1 0
BITMAP
00008400
00084000
00000000
D4000064
99400064
90930064
90092064
9001A264
90001A74
900001C4
ENDCHAR
STARTCHAR nacute
ENCODING 324
SWIDTH 933 0
DWIDTH 9 0
BBX 8 10 1 0
BITMAP
00019200
00093000
00000000
928DFD50
CD6202C1
A0000063
90000064
90000064
90000064
90000064
ENDCHAR
STARTCHAR Ncommaaccent
ENCODING 325
SWIDTH 936 0
DWIDTH 9 0
BBX 8 10 1 -3
BITMAP
D4000064
99400064
90930064
90092064
9001A264
90001A74
900001C4
00000000
00091000
00080000
ENDCHAR
STARTCHAR ncommaaccent
ENCODING 326
SWIDTH 933 0
DWIDTH 9 0
BBX 8 10 1 -3
BITMAP
928DFD50
CD6202C1
A0000063
90000064
90000064
90000064
90000064
00000000
000A0000
00080000
ENDCHAR
STARTCHAR Ncaron
ENCODING 327
SWIDTH 936 0
DWIDTH 9 0
BBX 8 10 1 0
BITMAP
01704400
00294000
00000000
D4000064
99400064
90930064
90092064
9001A264
90001A74
900001C4
ENDCHAR
STARTCHAR ncaron
ENCODING 328
SWIDTH 933 0
DWIDTH 9 0
BBX 8 10 1 0
BITMAP
02605300
00293000
00000000
928DFD50
CD6202C1
A0000063
90000064
90000064
90000064
90000064
ENDCHAR
STARTCHAR napostrophe
ENCODING 329
SWIDTH 1025 0
DWIDTH 10 0
BBX 10 7 0 0
BITMAP
A0929DFC40
80DC6203C0
00B0000082
0090000072
0090000072
0090000072
0090000072
ENDCHAR
STARTCHAR Eng
ENCODING 330
SWIDTH 936 0
DWIDTH 9 0
BBX 8 7 1 0
BITMAP
C6000064
94910064
902A2064
90019464
900007C3
900001B1
903FFD60
ENDCHAR
STARTCHAR eng
ENCODING 331
SWIDTH 933 0
DWIDTH 9 0
BBX 8 7 1 0
BITMAP
928DFD50
CD6202B1
A0000063
90000064
90000063
900001B1
901FFE60
ENDCHAR
STARTCHAR Omacron
ENCODING 332
SWIDTH 983 0
DWIDTH 10 0
BBX 10 9 0 0
BITMAP
0006FF4000
0000000000
007CEEC600
0B83113A70
39000000B1
5500000082
39000000B1
0A82113A80
007CEEC600
ENDCHAR
STARTCHAR omacron
ENCODING 333
SWIDTH 983 0
DWIDTH 10 0
BBX 10 9 0 0
BITMAP
0006FF4000
0000000000
007CEEC600
0B83113A70
39000000B1
5500000082
39000000B1
0A82113A80
007CEEC600
ENDCHAR
STARTCHAR Obreve
ENCODING 334
SWIDTH 983 0
DWIDTH 10 0
BBX 10 9 0 0
BITMAP
0006EE4000
0000000000
007CEEC600
0B83113A70
39000000B1
5500000082
39000000B1
0A82113A80
007CEEC600
ENDCHAR
STARTCHAR obreve
ENCODING 335
SWIDTH 983 0
DWIDTH 10 0
BBX 10 9 0 0
BITMAP
0006EE4000
0000000000
007CEEC600
0B83113A70
39000000B1
5500000082
39000000B1
0A82113A80
007CEEC600
ENDCHAR
STARTCHAR Ohungarumlaut
ENCODING 336
SWIDTH 983 0
DWIDTH 10 0
BBX 10 10 0 0
BITMAP
0000829000
0004673000
0000000000
007CEEC600
0B83113A70
39000000B1
5500000082
39000000B1
0A82113A80
007CEEC600
ENDCHAR
STARTCHAR ohungarumlaut
ENCODING 337
SWIDTH 983 0
DWIDTH 10 0
BBX 10 10 0 0
BITMAP
0000829000
0004673000
0000000000
007CEEC600
0B83113A70
39000000B1
5500000082
39000000B1
0A82113A80
007CEEC600
ENDCHAR
STARTCHAR OE
ENCODING 338
SWIDTH 1338 0
DWIDTH 13 0
BBX 13 7 0 0
BITMAP
007CFFFFFFFF80
0A931029000000
39000009000000
5500000FFFFF50
39000009000000
0A820029000000
017CEFFFFFFF90
ENDCHAR
STARTCHAR oe
ENCODING 339
SWIDTH 1688 0
DWIDTH 17 0
BBX 17 7 0 0
BITMAP
007CEEC6018DFD7000
0B83113A8B72026900
39000000B600000720
550000008FFFFFFF40
39000000B600000000
0A82113A8B72100000
007CEEC6018DFFFC00
ENDCHAR
STARTCHAR Racute
ENCODING 340
SWIDTH 833 0
DWIDTH 8 0
BBX 7 10 1 0
BITMAP
00075000
00750000
00000000
DFFFD800
90001940
90001940
DFFFE800
90008200
90001A00
90000390
ENDCHAR
STARTCHAR racute
ENCODING 341
SWIDTH 609 0
DWIDTH 6 0
BBX 6 10 1 0
BITMAP
002A00
029200
000000
92AEE1
BC5110
B10000
900000
900000
900000
900000
ENDCHAR
STARTCHAR Rcommaaccent
ENCODING 342
SWIDTH 833 0
DWIDTH 8 0
BBX 7 10 1 -3
BITMAP
DFFFD800
90001940
90001940
DFFFE800
90008200
90001A00
90000390
00000000
00280000
00450000
ENDCHAR
STARTCHAR rcommaaccent
ENCODING 343
SWIDTH 609 0
DWIDTH 6 0
BBX 6 10 1 -3
BITMAP
92AEE1
BC5110
B10000
900000
900000
900000
900000
000000
A00000
800000
ENDCHAR
STARTCHAR Rcaron
ENCODING 344
SWIDTH 833 0
DWIDTH 8 0
BBX 7 10 1 0
BITMAP
07135000
01950000
00000000
DFFFD800
90001940
90001940
DFFFE800
90008200
90001A00
90000390
ENDCHAR
STARTCHAR rcaron
ENCODING 345
SWIDTH 609 0
DWIDTH 6 0
BBX 6 10 1 0
BITMAP
450710
049200
000000
92AEE1
BC5110
B10000
900000
900000
900000
900000
ENDCHAR
STARTCHAR Sacute
ENCODING 346
SWIDTH 787 0
DWIDTH 8 0
BBX 7 10 0 0
BITMAP
00006600
00076000
00000000
06DFFF80
2A200000
0A730000
0059B920
000002A0
000003C0
2FFFEC40
ENDCHAR
STARTCHAR sacute
ENCODING 347
SWIDTH 787 0
DWIDTH 8 0
BBX 7 10 0 0
BITMAP
00006600
00076000
00000000
06DFFF80
2A200000
0A730000
0059B920
000002A0
000003C0
2FFFEC40
ENDCHAR
STARTCHAR Scircumflex
ENCODING 348
SWIDTH 787 0
DWIDTH 8 0
BBX 7 10 0 0
BITMAP
00086000
00713500
00000000
06DFFF80
2A200000
0A730000
0059B920
000002A0
000003C0
2FFFEC40
ENDCHAR
STARTCHAR scircumflex
ENCODING 349
SWIDTH 787 0
DWIDTH 8 0
BBX 7 10 0 0
BITMAP
00086000
00713500
00000000
06DFFF80
2A200000
0A730000
0059B920
000002A0
000003C0
2FFFEC40
ENDCHAR
STARTCHAR Scedilla
ENCODING 350
SWIDTH 787 0
DWIDTH 8 0
BBX 8 9 0 -2
BITMAP
06DFFF80
2B200000
09510000
0059A810
000002A0
000003C1
2FFFFC50
0007D000
003FC000
ENDCHAR
STARTCHAR scedilla
ENCODING 351
SWIDTH 787 0
DWIDTH 8 0
BBX 8 9 0 -2
BITMAP
06DFFF80
2B200000
09510000
0059A810
000002A0
000003C1
2FFFFC50
0007D000
003FC000
ENDCHAR
STARTCHAR Scaron
ENCODING 352
SWIDTH 787 0
DWIDTH 8 0
BBX 7 10 0 0
BITMAP
00713500
00086000
00000000
06DFFF80
2A200000
0A730000
0059B920
000002A0
000003C0
2FFFEC40
ENDCHAR
STARTCHAR scaron
ENCODING 353
SWIDTH 787 0
DWIDTH 8 0
BBX 7 10 0 0
BITMAP
00713500
00086000
00000000
06DFFF80
2A200000
0A730000
0059B920
000002A0
000003C0
2FFFEC40
ENDCHAR
STARTCHAR Tcommaaccent
ENCODING 354
SWIDTH 708 0
DWIDTH 7 0
BBX 7 10 0 -3
BITMAP
CFFFFFE0
00090000
00090000
00090000
00090000
00090000
00090000
00000000
000A0000
00080000
ENDCHAR
STARTCHAR tcommaaccent
ENCODING 355
SWIDTH 708 0
DWIDTH 7 0
BBX 7 10 0 -3
BITMAP
CFFFFFE0
00090000
00090000
00090000
00090000
00090000
00090000
00000000
000A0000
00080000
ENDCHAR
STARTCHAR Tcaron
ENCODING 356
SWIDTH 708 0
DWIDTH 7 0
BBX 7 10 0 0
BITMAP
02605300
00293000
00000000
CFFFFFE0
00090000
00090000
00090000
00090000
00090000
00090000
ENDCHAR
STARTCHAR tcaron
ENCODING 357
SWIDTH 708 0
DWIDTH 7 0
BBX 7 10 0 0
BITMAP
02605300
00293000
00000000
CFFFFFE0
00090000
00090000
00090000
00090000
00090000
00090000
ENDCHAR
STARTCHAR Tbar
ENCODING 358
SWIDTH 708 0
DWIDTH 7 0
BBX 7 7 0 0
BITMAP
CFFFFFE0
00090000
00090000
2FFFFF30
00090000
00090000
00090000
ENDCHAR
STARTCHAR tbar
ENCODING 359
SWIDTH 708 0
DWIDTH 7 0
BBX 7 7 0 0
BITMAP
CFFFFFE0
00090000
00090000
2FFFFF30
00090000
00090000
00090000
ENDCHAR
STARTCHAR Utilde
ENCODING 360
SWIDTH 891 0
DWIDTH 9 0
BBX 7 10 1 0
BITMAP
00D76200
0359C000
00000000
90000090
90000090
90000090
90000090
A00000A0
B7202890
1AEFD910
ENDCHAR
STARTCHAR utilde
ENCODING 361
SWIDTH 931 0
DWIDTH 9 0
BBX 8 10 1 0
BITMAP
00AA3500
0076D100
00000000
90000073
90000073
90000073
90000073
A0000083
B4015BD3
2BEEA473
ENDCHAR
STARTCHAR Umacron
ENCODING 362
SWIDTH 891 0
DWIDTH 9 0
BBX 7 9 1 0
BITMAP
00DFC000
00000000
90000090
90000090
90000090
90000090
A00000A0
B7202890
1AEFD910
ENDCHAR
STARTCHAR umacron
ENCODING 363
SWIDTH 931 0
DWIDTH 9 0
BBX 8 9 1 0
BITMAP
00BFF000
00000000
90000073
90000073
90000073
90000073
A0000083
B4015BD3
2BEEA473
ENDCHAR
STARTCHAR Ubreve
ENCODING 364
SWIDTH 891 0
DWIDTH 9 0
BBX 7 9 1 0
BITMAP
01CFB000
00000000
90000090
90000090
90000090
90000090
A00000A0
B7202890
1AEFD910
ENDCHAR
STARTCHAR ubreve
ENCODING 365
SWIDTH 931 0
DWIDTH 9 0
BBX 8 9 1 0
BITMAP
00AFC100
00000000
90000073
90000073
90000073
90000073
A0000083
B4015BD3
2BEEA473
ENDCHAR
STARTCHAR Uring
ENCODING 366
SWIDTH 891 0
DWIDTH 9 0
BBX 7 10 1 0
BITMAP
008E7000
008F7000
00000000
90000090
90000090
90000090
90000090
A00000A0
B7202890
1AEFD910
ENDCHAR
STARTCHAR uring
ENCODING 367
SWIDTH 931 0
DWIDTH 9 0
BBX 8 10 1 0
BITMAP
006EA000
006FA000
00000000
90000073
90000073
90000073
90000073
A0000083
B4015BD3
2BEEA473
ENDCHAR
STARTCHAR Uhungarumlaut
ENCODING 368
SWIDTH 891 0
DWIDTH 9 0
BBX 7 10 1 0
BITMAP
00284500
00829000
00000000
90000090
90000090
90000090
90000090
A00000A0
B7202890
1AEFD910
ENDCHAR
STARTCHAR uhungarumlaut
ENCODING 369
SWIDTH 931 0
DWIDTH 9 0
BBX 8 10 1 0
BITMAP
00192700
00739100
00000000
90000073
90000073
90000073
90000073
A0000083
B4015BD3
2BEEA473
ENDCHAR
STARTCHAR Uogonek
ENCODING 370
SWIDTH 891 0
DWIDTH 9 0
BBX 7 9 1 -2
BITMAP
90000090
90000090
90000090
90000090
A00000A0
B7202890
2AEFD910
00440000
004FA000
ENDCHAR
STARTCHAR uogonek
ENCODING 371
SWIDTH 931 0
DWIDTH 9 0
BBX 8 9 1 -2
BITMAP
90000073
90000073
90000073
90000073
A0000083
B4015BD3
2BEEA473
00000160
000003ED
ENDCHAR
STARTCHAR Wcircumflex
ENCODING 372
SWIDTH 1266 0
DWIDTH 13 0
BBX 13 10 0 0
BITMAP
00000491000000
00004407100000
00000000000000
740004D0000920
19000964000A00
09101919005500
0460540910A000
00A09004628000
00748000973000
002D30007A0000
ENDCHAR
STARTCHAR wcircumflex
ENCODING 373
SWIDTH 1266 0
DWIDTH 13 0
BBX 13 10 0 0
BITMAP
00000491000000
00004407100000
00000000000000
740004D0000920
19000964000A00
09101919005500
0460540910A000
00A09004628000
00748000973000
002D30007A0000
ENDCHAR
STARTCHAR Ycircumflex
ENCODING 374
SWIDTH 763 0
DWIDTH 8 0
BBX 8 10 0 0
BITMAP
00186000
00713500
00000000
470001A1
07500A20
00A38500
001C8000
00072000
00072000
00072000
ENDCHAR
STARTCHAR ycircumflex
ENCODING 375
SWIDTH 911 0
DWIDTH 9 0
BBX 8 10 0 0
BITMAP
00039200
00350620
00000000
18000009
18000009
1A00001D
0B6115CC
01AEEA2A
00001389
1FFFEC70
ENDCHAR
STARTCHAR Ydieresis
ENCODING 376
SWIDTH 763 0
DWIDTH 8 0
BBX 8 9 0 0
BITMAP
00838300
00000000
470001A1
07500A20
00A38500
001C8000
00072000
00072000
00072000
ENDCHAR
STARTCHAR Zacute
ENCODING 377
SWIDTH 728 0
DWIDTH 7 0
BBX 7 10 0 0
BITMAP
00008400
00084000
00000000
2FFFFF70
00001700
00007000
00071000
00610000
05200000
3FFFFF90
ENDCHAR
STARTCHAR zacute
ENCODING 378
SWIDTH 728 0
DWIDTH 7 0
BBX 7 10 0 0
BITMAP
00008400
00084000
00000000
2FFFFF70
00001700
00007000
00071000
00610000
05200000
3FFFFF90
ENDCHAR
STARTCHAR Zdotaccent
ENCODING 379
SWIDTH 728 0
DWIDTH 7 0
BBX 7 9 0 0
BITMAP
000A1000
00000000
2FFFFF70
00001700
00007000
00071000
00610000
05200000
3FFFFF90
ENDCHAR
STARTCHAR zdotaccent
ENCODING 380
SWIDTH 728 0
DWIDTH 7 0
BBX 7 9 0 0
BITMAP
000A1000
00000000
2FFFFF70
00001700
00007000
00071000
00610000
05200000
3FFFFF90
ENDCHAR
STARTCHAR Zcaron
ENCODING 381
SWIDTH 728 0
DWIDTH 7 0
BBX 7 10 0 0
BITMAP
01704400
00195000
00000000
2FFFFF70
00001700
00007000
00071000
00610000
05200000
3FFFFF90
ENDCHAR
STARTCHAR zcaron
ENCODING 382
SWIDTH 728 0
DWIDTH 7 0
BBX 7 10 0 0
BITMAP
01704400
00195000
00000000
2FFFFF70
00001700
00007000
00071000
00610000
05200000
3FFFFF90
ENDCHAR
STARTCHAR florin
ENCODING 402
SWIDTH 835 0
DWIDTH 8 0
BBX 9 7 0 0
BITMAP
00001BFF10
0000850000
005FFF8000
0001900000
0006500000
002C000000
BFD5000000
ENDCHAR
STARTCHAR AEacute
ENCODING 508
SWIDTH 1172 0
DWIDTH 12 0
BBX 11 10 0 0
BITMAP
00000002A000
000000192000
000000000000
0000CFFFFFE0
00066A000000
00280A000000
00700AFFFFA0
06FFFF000000
19000A000000
A2000AFFFFF0
ENDCHAR
STARTCHAR aeacute
ENCODING 509
SWIDTH 1551 0
DWIDTH 16 0
BBX 15 10 0 0
BITMAP
0000000066000000
0000000760000000
0000000000000000
0BFFFD913AEFC400
0000027BB4113A40
0000000C10000090
0169BDEFFFFFFFE0
2B74210B10000000
5810126BB5100000
09EFEB613AEFFF60
ENDCHAR
STARTCHAR Oslashacute
ENCODING 510
SWIDTH 983 0
DWIDTH 10 0
BBX 10 11 0 -1
BITMAP
0000057000
0000660000
0000000810
007CEEC900
0B83119980
39000720A1
5500540072
38046000B1
0B89013A80
00BDFEC600
0270000000
ENDCHAR
STARTCHAR oslashacute
ENCODING 511
SWIDTH 983 0
DWIDTH 10 0
BBX 10 11 0 -1
BITMAP
0000057000
0000660000
0000000810
007CEEC900
0B83119980
39000720A1
5500540072
38046000B1
0B89013A80
00BDFEC600
0270000000
ENDCHAR
STARTCHAR dotlessj
ENCODING 567
SWIDTH 590 0
DWIDTH 6 0
BBX 5 7 0 0
BITMAP
000090
000090
000090
000090
0000A0
000690
FFEB10
ENDCHAR
STARTCHAR circumflex
ENCODING 710
SWIDTH 527 0
DWIDTH 5 0
BBX 5 2 0 6
BITMAP
029400
170530
ENDCHAR
STARTCHAR caron
ENCODING 711
SWIDTH 527 0
DWIDTH 5 0
BBX 5 2 0 6
BITMAP
170530
029400
ENDCHAR
STARTCHAR breve
ENCODING 728
SWIDTH 527 0
DWIDTH 5 0
BBX 4 1 1 6
BITMAP
AFC1
ENDCHAR
STARTCHAR dotaccent
ENCODING 729
SWIDTH 527 0
DWIDTH 5 0
BBX 1 1 2 6
BITMAP
B0
ENDCHAR
STARTCHAR ring
ENCODING 730
SWIDTH 527 0
DWIDTH 5 0
BBX 3 2 1 6
BITMAP
6EA0
6FA0
ENDCHAR
STARTCHAR ogonek
ENCODING 731
SWIDTH 527 0
DWIDTH 5 0
BBX 3 2 1 -2
BITMAP
2400
5FA0
ENDCHAR
STARTCHAR tilde
ENCODING 732
SWIDTH 527 0
DWIDTH 5 0
BBX 5 2 0 6
BITMAP
0B9450
177D10
ENDCHAR
STARTCHAR hungarumlaut
ENCODING 733
SWIDTH 527 0
DWIDTH 5 0
BBX 4 2 1 6
BITMAP
1927
7391
ENDCHAR
STARTCHAR commaaccent
ENCODING 806
SWIDTH 527 0
DWIDTH 5 0
BBX 1 2 2 -3
BITMAP
A0
80
ENDCHAR
STARTCHAR mu
ENCODING 956
SWIDTH 705 0
DWIDTH 7 0
BBX 7 7 0 -2
BITMAP
07200910
09000A00
08001A00
1D22B800
39ED4800
63000000
91000000
ENDCHAR
STARTCHAR Wgrave
ENCODING 7808
SWIDTH 1266 0
DWIDTH 13 0
BBX 13 10 0 0
BITMAP
00004800000000
00000490000000
00000000000000
740004D0000920
19000964000A00
09101919005500
0460540910A000
00A09004628000
00748000973000
002D30007A0000
ENDCHAR
STARTCHAR wgrave
ENCODING 7809
SWIDTH 1266 0
DWIDTH 13 0
BBX 13 10 0 0
BITMAP
00004800000000
00000490000000
00000000000000
740004D0000920
19000964000A00
09101919005500
0460540910A000
00A09004628000
00748000973000
002D30007A0000
ENDCHAR
STARTCHAR Wacute
ENCODING 7810
SWIDTH 1266 0
DWIDTH 13 0
BBX 13 10 0 0
BITMAP
0000002A000000
00000292000000
00000000000000
740004D0000920
19000964000A00
09101919005500
0460540910A000
00A09004628000
00748000973000
002D30007A0000
ENDCHAR
STARTCHAR wacute
ENCODING 7811
SWIDTH 1266 0
DWIDTH 13 0
BBX 13 10 0 0
BITMAP
0000002A000000
00000292000000
00000000000000
740004D0000920
19000964000A00
09101919005500
0460540910A000
00A09004628000
00748000973000
002D30007A0000
ENDCHAR
STARTCHAR Wdieresis
ENCODING 7812
SWIDTH 1266 0
DWIDTH 13 0
BBX 13 9 0 0
BITMAP
00000B1A000000
00000000000000
740004D0000920
19000964000A00
09101919005500
0460540910A000
00A09004628000
00748000973000
002D30007A0000
ENDCHAR
STARTCHAR wdieresis
ENCODING 7813
SWIDTH 1266 0
DWIDTH 13 0
BBX 13 9 0 0
BITMAP
00000B1A000000
00000000000000
740004D0000920
19000964000A00
09101919005500
0460540910A000
00A09004628000
00748000973000
002D30007A0000
ENDCHAR
STARTCHAR Ygrave
ENCODING 7922
SWIDTH 763 0
DWIDTH 8 0
BBX 8 10 0 0
BITMAP
00930000
00184000
00000000
470001A1
07500A20
00A38500
001C8000
00072000
00072000
00072000
ENDCHAR
STARTCHAR ygrave
ENCODING 7923
SWIDTH 911 0
DWIDTH 9 0
BBX 8 10 0 0
BITMAP
00291000
00039000
00000000
18000009
18000009
1A00001D
0B6115CC
01AEEA2A
00001389
1FFFEC70
ENDCHAR
STARTCHAR endash
ENCODING 8211
SWIDTH 419 0
DWIDTH 4 0
BBX 4 1 0 3
BITMAP
CFFF
ENDCHAR
STARTCHAR emdash
ENCODING 8212
SWIDTH 1000 0
DWIDTH 10 0
BBX 10 1 0 3
BITMAP
FFFFFFFFFF
ENDCHAR
STARTCHAR quoteleft
ENCODING 8216
SWIDTH 163 0
DWIDTH 2 0
BBX 2 2 0 5
BITMAP
44
91
ENDCHAR
STARTCHAR quoteright
ENCODING 8217
SWIDTH 163 0
DWIDTH 2 0
BBX 2 2 0 5
BITMAP
73
80
ENDCHAR
STARTCHAR quotesinglbase
ENCODING 8218
SWIDTH 163 0
DWIDTH 2 0
BBX 2 2 0 -1
BITMAP
73
80
ENDCHAR
STARTCHAR quotedblleft
ENCODING 8220
SWIDTH 303 0
DWIDTH 3 0
BBX 3 2 0 5
BITMAP
4480
9470
ENDCHAR
STARTCHAR quotedblright
ENCODING 8221
SWIDTH 303 0
DWIDTH 3 0
BBX 3 2 0 5
BITMAP
7490
8350
ENDCHAR
STARTCHAR quotedblbase
ENCODING 8222
SWIDTH 303 0
DWIDTH 3 0
BBX 3 2 0 -1
BITMAP
7490
8350
ENDCHAR
STARTCHAR dagger
ENCODING 8224
SWIDTH 500 0
DWIDTH 5 0
BBX 5 7 0 0
BITMAP
009000
009000
1FFF20
009000
009000
009000
009000
ENDCHAR
STARTCHAR daggerdbl
ENCODING 8225
SWIDTH 500 0
DWIDTH 5 0
BBX 5 7 0 0
BITMAP
009000
009000
1FFF20
009000
1FFF20
009000
009000
ENDCHAR
STARTCHAR bullet
ENCODING 8226
SWIDTH 352 0
DWIDTH 4 0
BBX 3 2 0 2
BITMAP
1D70
1E80
ENDCHAR
STARTCHAR ellipsis
ENCODING 8230
SWIDTH 555 0
DWIDTH 6 0
BBX 6 1 0 0
BITMAP
85A3C1
ENDCHAR
STARTCHAR perthousand
ENCODING 8240
SWIDTH 1401 0
DWIDTH 14 0
BBX 14 7 0 0
BITMAP
2CEA0046000000
75184280000000
2CFA1910000000
00008200000000
000554DE70AEC2
00280A21B38157
019005DE70AFC2
ENDCHAR
STARTCHAR guilsinglleft
ENCODING 8249
SWIDTH 257 0
DWIDTH 3 0
BBX 3 3 0 2
BITMAP
1810
8300
1910
ENDCHAR
STARTCHAR guilsinglright
ENCODING 8250
SWIDTH 257 0
DWIDTH 3 0
BBX 3 3 0 2
BITMAP
4600
0920
4600
ENDCHAR
STARTCHAR fraction
ENCODING 8260
SWIDTH 200 0
DWIDTH 2 0
BBX 6 7 -2 0
BITMAP
000028
000091
000820
005500
028000
190000
820000
ENDCHAR
STARTCHAR Euro
ENCODING 8364
SWIDTH 833 0
DWIDTH 8 0
BBX 8 7 0 0
BITMAP
005CEE92
05920157
AFFFFE00
09000000
AFFFF600
05820157
005CEE92
ENDCHAR
STARTCHAR trademark
ENCODING 8482
SWIDTH 773 0
DWIDTH 8 0
BBX 7 3 0 4
BITMAP
BFAB12A0
07075670
07076470
ENDCHAR
STARTCHAR partialdiff
ENCODING 8706
SWIDTH 790 0
DWIDTH 8 0
BBX 8 7 0 0
BITMAP
00BFEB30
000015C1
00000073
05CEEA84
4A2014C1
58102660
08DEC600
ENDCHAR
STARTCHAR minus
ENCODING 8722
SWIDTH 634 0
DWIDTH 6 0
BBX 6 1 0 3
BITMAP
2FFFF8
ENDCHAR
STARTCHAR uni2215
ENCODING 8725
SWIDTH 200 0
DWIDTH 2 0
BBX 6 7 -2 0
BITMAP
000028
000091
000820
005500
028000
190000
820000
ENDCHAR
STARTCHAR approxequal
ENCODING 8776
SWIDTH 634 0
DWIDTH 6 0
BBX 6 4 0 2
BITMAP
1CC515
333AE4
1CC515
333AE4
ENDCHAR
STARTCHAR notequal
ENCODING 8800
SWIDTH 634 0
DWIDTH 6 0
BBX 6 7 0 0
BITMAP
000630
000900
2FFFF8
002600
2FFFF8
009000
009000
ENDCHAR
STARTCHAR lessequal
ENCODING 8804
SWIDTH 634 0
DWIDTH 6 0
BBX 6 6 0 0
BITMAP
000297
05BB61
4D4000
05BB61
000297
2FFFF8
ENDCHAR
STARTCHAR greaterequal
ENCODING 8805
SWIDTH 634 0
DWIDTH 6 0
BBX 6 6 0 0
BITMAP
2B4000
049C71
0001B9
049C71
2B5000
2FFFF8
ENDCHAR
STARTCHAR fi
ENCODING 64257
SWIDTH 1104 0
DWIDTH 11 0
BBX 9 7 1 0
BITMAP
2AEFFF8090
A510000090
9000000090
DFFFFF7090
9000000090
9000000090
9000000090
ENDCHAR
STARTCHAR fl
ENCODING 64258
SWIDTH 1527 0
DWIDTH 15 0
BBX 15 7 1 0
BITMAP
2AEFFF8090000000
A510000090000000
9000000090000000
DFFFFF7090000000
9000000090000000
9000000095000000
900000002BFFFF30
ENDCHAR
STARTCHAR .notdef
ENCODING -1
SWIDTH 1000 0
DWIDTH 10 0
BBX 1 1 0 0
BITMAP
00
ENDCHAR
ENDFONT
